<?xml version="1.0" encoding="UTF-8" standalone="no"?>
<!-- Created with Inkscape (http://www.inkscape.org/) -->

<svg
   width="63.999996"
   height="63.999996"
   viewBox="0 0 16.933332 16.933332"
   version="1.1"
   id="svg180"
   inkscape:version="1.3 (0e150ed6c4, 2023-07-21)"
   sodipodi:docname="rp-brand.svg"
   xmlns:inkscape="http://www.inkscape.org/namespaces/inkscape"
   xmlns:sodipodi="http://sodipodi.sourceforge.net/DTD/sodipodi-0.dtd"
   xmlns="http://www.w3.org/2000/svg"
   xmlns:svg="http://www.w3.org/2000/svg">
  <sodipodi:namedview
     id="namedview182"
     pagecolor="#ffffff"
     bordercolor="#666666"
     borderopacity="1.0"
     inkscape:showpageshadow="2"
     inkscape:pageopacity="0.0"
     inkscape:pagecheckerboard="0"
     inkscape:deskcolor="#d1d1d1"
     inkscape:document-units="px"
     showgrid="false"
     inkscape:zoom="0.125"
     inkscape:cx="12772"
     inkscape:cy="-1971.9999"
     inkscape:window-width="1920"
     inkscape:window-height="1009"
     inkscape:window-x="-8"
     inkscape:window-y="-8"
     inkscape:window-maximized="1"
     inkscape:current-layer="layer1" />
  <defs
     id="defs177" />
  <g
     inkscape:label="Layer 1"
     inkscape:groupmode="layer"
     id="layer1"
     transform="translate(-2584.3174,-39.422912)">
    <g
       id="g4">
      <circle
         style="fill:#5f9ea0;fill-opacity:1;stroke-width:0.0435405;stroke-linecap:round;stroke-linejoin:round"
         id="path1-9-7"
         cx="2592.7842"
         cy="47.88958"
         r="8.4666672"
         inkscape:export-filename="..\Exported Files\New Files\rp-logo-2022_2025-circle.png"
         inkscape:export-xdpi="96"
         inkscape:export-ydpi="96" />
      <path
         id="path238-3-9-1-6-1-2-9-8-4"
         style="fill:#f9f9f9;stroke-width:0.00513943;stroke-linecap:round;stroke-linejoin:round;stroke-dasharray:0.0308368, 0.0308368"
         d="m 2589.7816,43.306462 a 0.63215431,0.63215431 0 0 0 -0.5475,0.316079 0.63215431,0.63215431 0 0 0 0,0.632153 0.63215431,0.63215431 0 0 0 0.5475,0.316078 h 3.4768 a 1.8964629,1.8964629 0 0 1 1.8965,1.896461 1.8964629,1.8964629 0 0 1 -1.8965,1.896463 1.5803858,1.5803858 0 0 0 -1.5804,1.580386 v 1.896464 a 0.63215431,0.63215431 0 0 0 0.3161,0.547455 0.63215431,0.63215431 0 0 0 0.6321,0 0.63215431,0.63215431 0 0 0 0.3161,-0.547455 v -1.896464 a 0.31607717,0.31607717 0 0 1 0.3161,-0.316075 3.1607717,3.1607717 0 0 0 2.7373,-1.580389 3.1607717,3.1607717 0 0 0 0,-3.16077 3.1607717,3.1607717 0 0 0 -2.7373,-1.580386 z m 3.4768,2.528618 a 4.1090031,4.1090031 0 0 0 -4.109,4.109002 v 1.896464 a 0.63215431,0.63215431 0 0 0 0.3161,0.547455 0.63215431,0.63215431 0 0 0 0.6321,0 0.63215431,0.63215431 0 0 0 0.3161,-0.547455 v -1.896464 a 2.8446945,2.8446945 0 0 1 2.8447,-2.844692 0.63215431,0.63215431 0 0 0 0.5475,-0.316079 0.63215431,0.63215431 0 0 0 0,-0.632153 0.63215431,0.63215431 0 0 0 -0.5475,-0.316078 z m 2.5286,5.373312 a 0.63215431,0.63215431 0 0 0 -0.6321,0.632154 0.63215431,0.63215431 0 0 0 0.6321,0.632153 0.63215431,0.63215431 0 0 0 0.6322,-0.632153 0.63215431,0.63215431 0 0 0 -0.6322,-0.632154 z" />
    </g>
  </g>
</svg>
