<?xml version="1.0" encoding="UTF-8" standalone="no"?>
<!-- Created with Inkscape (http://www.inkscape.org/) -->

<svg
   width="63.999996"
   height="63.999996"
   viewBox="0 0 16.933332 16.933332"
   version="1.1"
   id="svg180"
   inkscape:version="1.3 (0e150ed6c4, 2023-07-21)"
   sodipodi:docname="rp-brand.svg"
   xmlns:inkscape="http://www.inkscape.org/namespaces/inkscape"
   xmlns:sodipodi="http://sodipodi.sourceforge.net/DTD/sodipodi-0.dtd"
   xmlns="http://www.w3.org/2000/svg"
   xmlns:svg="http://www.w3.org/2000/svg">
  <sodipodi:namedview
     id="namedview182"
     pagecolor="#ffffff"
     bordercolor="#666666"
     borderopacity="1.0"
     inkscape:showpageshadow="2"
     inkscape:pageopacity="0.0"
     inkscape:pagecheckerboard="0"
     inkscape:deskcolor="#d1d1d1"
     inkscape:document-units="px"
     showgrid="false"
     inkscape:zoom="0.1767767"
     inkscape:cx="13313.406"
     inkscape:cy="800.44486"
     inkscape:window-width="1920"
     inkscape:window-height="1009"
     inkscape:window-x="-8"
     inkscape:window-y="-8"
     inkscape:window-maximized="1"
     inkscape:current-layer="layer1" />
  <defs
     id="defs177" />
  <g
     inkscape:label="Layer 1"
     inkscape:groupmode="layer"
     id="layer1"
     transform="translate(-2538.9417,-39.422912)">
    <g
       id="g2"
       transform="matrix(0.04114076,0,0,0.04114076,2451.0113,64.43701)">
      <circle
         style="fill:#28d7b4;fill-opacity:1;stroke-width:1.05833;stroke-linecap:round;stroke-linejoin:round"
         id="path1-9"
         cx="2343.1016"
         cy="-402.21497"
         r="205.79753"
         inkscape:export-filename="..\Exported Files\New Files\rp-logo-2022_2025-circle.png"
         inkscape:export-xdpi="96"
         inkscape:export-ydpi="96" />
      <path
         id="path238-3-9-1-6-1-2-9-8"
         style="fill:#0000ff;stroke-width:0.124923;stroke-linecap:round;stroke-linejoin:round;stroke-dasharray:0.749543, 0.749543"
         d="m 2270.1149,-513.61588 a 15.365645,15.365645 0 0 0 -13.3076,7.68285 15.365645,15.365645 0 0 0 0,15.36562 15.365645,15.365645 0 0 0 13.3076,7.68285 h 84.5109 a 46.096935,46.096935 0 0 1 46.097,46.09688 46.096935,46.096935 0 0 1 -46.097,46.09695 38.414114,38.414114 0 0 0 -38.414,38.4141 v 46.09696 a 15.365645,15.365645 0 0 0 7.6828,13.30689 15.365645,15.365645 0 0 0 15.3657,0 15.365645,15.365645 0 0 0 7.6829,-13.30689 v -46.09696 a 7.6828228,7.6828228 0 0 1 7.6826,-7.68277 76.828228,76.828228 0 0 0 66.5357,-38.41418 76.828228,76.828228 0 0 0 0,-76.82819 76.828228,76.828228 0 0 0 -66.5357,-38.41411 z m 84.5109,61.46258 a 99.876693,99.876693 0 0 0 -99.8767,99.87667 v 46.09696 a 15.365645,15.365645 0 0 0 7.6829,13.30689 15.365645,15.365645 0 0 0 15.3655,0 15.365645,15.365645 0 0 0 7.683,-13.30689 v -46.09696 a 69.145404,69.145404 0 0 1 69.1453,-69.14534 15.365645,15.365645 0 0 0 13.3069,-7.68286 15.365645,15.365645 0 0 0 0,-15.36562 15.365645,15.365645 0 0 0 -13.3069,-7.68285 z m 61.4627,130.60801 a 15.365645,15.365645 0 0 0 -15.3657,15.36562 15.365645,15.365645 0 0 0 15.3657,15.36562 15.365645,15.365645 0 0 0 15.3657,-15.36562 15.365645,15.365645 0 0 0 -15.3657,-15.36562 z" />
    </g>
  </g>
</svg>
