<?xml version="1.0" encoding="UTF-8" standalone="no"?>
<!-- Created with Inkscape (http://www.inkscape.org/) -->

<svg
   width="793.10742"
   height="1000.0001"
   viewBox="0 0 209.843 264.58335"
   version="1.1"
   id="svg180"
   inkscape:version="1.3 (0e150ed6c4, 2023-07-21)"
   sodipodi:docname="rp-brand.svg"
   xmlns:inkscape="http://www.inkscape.org/namespaces/inkscape"
   xmlns:sodipodi="http://sodipodi.sourceforge.net/DTD/sodipodi-0.dtd"
   xmlns="http://www.w3.org/2000/svg"
   xmlns:svg="http://www.w3.org/2000/svg">
  <sodipodi:namedview
     id="namedview182"
     pagecolor="#ffffff"
     bordercolor="#666666"
     borderopacity="1.0"
     inkscape:showpageshadow="2"
     inkscape:pageopacity="0.0"
     inkscape:pagecheckerboard="0"
     inkscape:deskcolor="#d1d1d1"
     inkscape:document-units="px"
     showgrid="false"
     inkscape:zoom="0.1767767"
     inkscape:cx="7673.5226"
     inkscape:cy="1400.0714"
     inkscape:window-width="1920"
     inkscape:window-height="1009"
     inkscape:window-x="-8"
     inkscape:window-y="-8"
     inkscape:window-maximized="1"
     inkscape:current-layer="layer1" />
  <defs
     id="defs177" />
  <g
     inkscape:label="Layer 1"
     inkscape:groupmode="layer"
     id="layer1"
     transform="translate(-3600.979,-191.02917)">
    <path
       id="path238-3-9-1-6-1-2-9-1"
       style="fill:#f9f9f9;stroke-width:0.14835;stroke-linecap:round;stroke-linejoin:round;stroke-dasharray:0.890103, 0.890103"
       d="m 3619.2269,191.02916 a 18.247128,18.247128 0 0 0 -15.8032,9.1236 18.247128,18.247128 0 0 0 0,18.24711 18.247128,18.247128 0 0 0 15.8032,9.12359 h 100.359 a 54.741384,54.741384 0 0 1 54.7415,54.74132 54.741384,54.741384 0 0 1 -54.7415,54.74139 45.617822,45.617822 0 0 0 -45.6177,45.61782 v 54.74141 a 18.247128,18.247128 0 0 0 9.1236,15.8023 18.247128,18.247128 0 0 0 18.2472,0 18.247128,18.247128 0 0 0 9.1236,-15.8023 v -54.74141 a 9.1235644,9.1235644 0 0 1 9.1233,-9.1235 91.235644,91.235644 0 0 0 79.013,-45.6179 91.235644,91.235644 0 0 0 0,-91.2356 91.235644,91.235644 0 0 0 -79.013,-45.61782 z m 100.359,72.98851 a 118.60633,118.60633 0 0 0 -118.6063,118.60631 v 54.74141 a 18.247128,18.247128 0 0 0 9.1236,15.8023 18.247128,18.247128 0 0 0 18.247,0 18.247128,18.247128 0 0 0 9.1238,-15.8023 v -54.74141 a 82.112078,82.112078 0 0 1 82.1119,-82.112 18.247128,18.247128 0 0 0 15.8023,-9.12361 18.247128,18.247128 0 0 0 0,-18.2471 18.247128,18.247128 0 0 0 -15.8023,-9.1236 z m 72.9887,155.10064 a 18.247128,18.247128 0 0 0 -18.2472,18.24708 18.247128,18.247128 0 0 0 18.2472,18.2471 18.247128,18.247128 0 0 0 18.2472,-18.2471 18.247128,18.247128 0 0 0 -18.2472,-18.24708 z" />
  </g>
</svg>
